<?xml version="1.0" encoding="UTF-8" standalone="no"?>
<!-- Generator: Adobe Illustrator 21.0.0, SVG Export Plug-In . SVG Version: 6.00 Build 0)  -->

<svg
   xmlns:dc="http://purl.org/dc/elements/1.1/"
   xmlns:cc="http://creativecommons.org/ns#"
   xmlns:rdf="http://www.w3.org/1999/02/22-rdf-syntax-ns#"
   xmlns:svg="http://www.w3.org/2000/svg"
   xmlns="http://www.w3.org/2000/svg"
   xmlns:sodipodi="http://sodipodi.sourceforge.net/DTD/sodipodi-0.dtd"
   xmlns:inkscape="http://www.inkscape.org/namespaces/inkscape"
   version="1.1"
   id="Layer_1"
   x="0px"
   y="0px"
   viewBox="0 0 228.8 66.5"
   style="enable-background:new 0 0 228.8 66.5;"
   xml:space="preserve"
   sodipodi:docname="farmacov.svg"
   inkscape:version="0.92.3 (2405546, 2018-03-11)"><metadata
   id="metadata13"><rdf:RDF><cc:Work
       rdf:about=""><dc:format>image/svg+xml</dc:format><dc:type
         rdf:resource="http://purl.org/dc/dcmitype/StillImage" /></cc:Work></rdf:RDF></metadata><defs
   id="defs11" /><sodipodi:namedview
   pagecolor="#ffffff"
   bordercolor="#666666"
   borderopacity="1"
   objecttolerance="10"
   gridtolerance="10"
   guidetolerance="10"
   inkscape:pageopacity="0"
   inkscape:pageshadow="2"
   inkscape:window-width="1920"
   inkscape:window-height="1007"
   id="namedview9"
   showgrid="false"
   inkscape:zoom="18.79025"
   inkscape:cx="14.102687"
   inkscape:cy="-3.2775149"
   inkscape:window-x="0"
   inkscape:window-y="39"
   inkscape:window-maximized="1"
   inkscape:current-layer="Layer_1" />
<style
   type="text/css"
   id="style2">
	.st0{fill:#00ADCA;}
	.st1{fill:#6D6E70;}
</style>
<path
   class="st0"
   d="M19.7,7.6c-0.5-1.6-1.1-3.2-1.9-4c-0.9-0.9-1.4-1.1-3.5-1.1h-3.2c-1.4,0-1.6,0.1-1.6,1.5v9.3h4.5  c2.5,0,2.8-0.6,3.5-3.6h1.6v9.4h-1.6c-0.5-2.9-1.1-3.6-3.4-3.6H9.5v6.6c0,3.9,0.3,4.2,4.1,4.5v1.6H0v-1.6c3.2-0.3,3.6-0.6,3.6-4.5  V6.5c0-3.8-0.4-4.1-3.6-4.4V0.6h14.4c3.7,0,5.8,0,6.5-0.1c0,0.7,0.3,4.4,0.5,6.9L19.7,7.6z M42.5,28.7c-1.1,0-2.1-0.4-2.6-0.9  c-0.6-0.5-0.9-1.1-1.1-1.6c-1.6,1.1-3.7,2.5-4.5,2.5c-3.7,0-5.8-2.8-5.8-5.5c0-2.3,1-3.3,3.3-4.2c2.5-0.9,5.9-2,6.8-2.8v-1.9  c0-2.2-0.8-3.4-2.6-3.4c-0.7,0-1.3,0.3-1.7,0.8c-0.5,0.7-0.7,1.5-1,2.8c-0.3,1.1-1,1.4-1.8,1.4c-1.1,0-2.5-1-2.5-2.2  c0-0.8,0.5-1.3,1.5-2c1.9-1.3,4.4-2.5,6.8-3c1.7,0,3.1,0.4,4.4,1.2c1.8,1.3,2.3,3.1,2.3,5.2v7.4c0,2,0.7,2.5,1.4,2.5  c0.4,0,0.8-0.1,1.3-0.3l0.5,1.4L42.5,28.7z M38.6,18c-0.8,0.4-1.5,0.8-2.4,1.3c-1.3,0.7-2.1,1.4-2.1,2.9c0,2.4,1.7,3.2,2.6,3.2  c0.6,0,1.2,0,1.9-0.7C38.6,22.8,38.6,20,38.6,18z M65.7,28.2H54.4v-1.4c2.3-0.3,2.5-0.5,2.5-3v-9.3c0-2.1-0.2-2.3-2.2-2.8v-1.3  c2.6-0.3,5-0.8,7.6-1.6c0,1.4,0,3.2,0,4.6c1.9-2.9,3.4-4.5,5.2-4.5c1.6,0,2.8,1.1,2.8,2.5c0,2.1-1.5,3.3-2.2,3.6  c-0.6,0.3-1,0-1.3-0.2c-0.7-0.6-1.3-1.3-2-1.3c-0.6,0-1.7,0.6-2.5,2.2v8.1c0,2.5,0.3,2.7,3.3,3V28.2z M101.4,28.2v-1.4  c1.7-0.3,2-0.4,2-3v-7.4c0-3.5-1.7-4.2-3-4.2c-0.8,0-1.8,0.3-3.1,1.3c0,0.5,0.1,1.1,0.1,1.8v8.6c0,2.4,0.1,2.6,2.1,2.8v1.4h-9.6  v-1.4c1.9-0.3,2-0.4,2-2.8v-7.7c0-3-1.2-4-2.8-4c-1.1,0-2.1,0.4-3.3,1.3v10.5c0,2.4,0.3,2.6,1.8,2.8v1.4H78v-1.4  c2.3-0.3,2.5-0.5,2.5-3v-9c0-2.4,0-2.8-2-3.1v-1.4c2.4-0.3,4.8-0.8,7.5-1.6c0,1,0,2.2,0,3.2c0.9-0.6,1.7-1.2,2.6-1.7  c1.3-0.8,2.3-1.3,3.6-1.3c2.4,0,4,1.3,4.8,3.2c1-0.8,1.9-1.4,2.9-2.1c0.9-0.6,2.1-1.1,3.4-1.1c3.7,0,5.7,2.5,5.7,6.8v8.2  c0,2.3,0.2,2.5,2.3,2.8v1.4H101.4z M133.2,28.7c-1.1,0-2.1-0.4-2.6-0.9c-0.6-0.5-0.9-1.1-1.1-1.6c-1.6,1.1-3.7,2.5-4.5,2.5  c-3.7,0-5.8-2.8-5.8-5.5c0-2.3,1-3.3,3.3-4.2c2.5-0.9,5.9-2,6.8-2.8v-1.9c0-2.2-0.8-3.4-2.6-3.4c-0.7,0-1.3,0.3-1.7,0.8  c-0.5,0.7-0.7,1.5-1,2.8c-0.3,1.1-1,1.4-1.8,1.4c-1.1,0-2.5-1-2.5-2.2c0-0.8,0.5-1.3,1.5-2c1.9-1.3,4.4-2.5,6.8-3  c1.7,0,3.1,0.4,4.4,1.2c1.8,1.3,2.3,3.1,2.3,5.2v7.4c0,2,0.7,2.5,1.4,2.5c0.4,0,0.8-0.1,1.3-0.3l0.5,1.4L133.2,28.7z M129.3,18  c-0.8,0.4-1.5,0.8-2.4,1.3c-1.3,0.7-2.1,1.4-2.1,2.9c0,2.4,1.7,3.2,2.6,3.2c0.6,0,1.2,0,1.9-0.7C129.3,22.8,129.3,20,129.3,18z   M171.6,20.9c-0.6,2.1-1.7,5.4-2.4,6.8c-1.1,0.3-4.6,1.1-7.8,1.1c-11.4,0-16.1-7.4-16.1-14.1C145.3,5.9,152,0,162.2,0  c3.7,0,7,0.9,8,1c0.2,2,0.5,5.1,0.8,7l-1.7,0.3c-0.9-3.3-2.2-4.9-4.4-5.8c-1-0.4-2.5-0.6-3.7-0.6c-6.2,0-9.3,5.1-9.3,11.8  c0,7.8,4,13,9.8,13c3.6,0,5.9-1.9,8.2-6.5L171.6,20.9z M190.9,8.8c6,0,9.8,4.5,9.8,9.6c0,6.8-4.9,10.3-9.9,10.3  c-6.4,0-10.1-4.8-10.1-9.8C180.6,12.4,186,8.8,190.9,8.8z M190.4,10.5c-1.8,0-3.6,1.9-3.6,7.1c0,5.3,1.7,9.3,4.4,9.3  c1.6,0,3.4-1.1,3.4-7.3C194.5,13.8,193,10.5,190.4,10.5z M228.8,10.8c-2.3,0.4-2.6,0.8-3.5,2.8c-1.5,3.4-3.7,8.6-6.2,15h-1.8  c-2.1-5.3-4.1-10.3-6.1-15.2c-0.8-1.8-1.2-2.3-3.4-2.7V9.3h10.6v1.4c-1.9,0.4-2.2,0.7-1.7,2.1c1.1,2.9,2.6,7,3.3,8.8  c0.7-1.9,2.2-5.6,3.1-8.5c0.4-1.3,0.3-2.1-2.3-2.4V9.3h8V10.8z"
   id="path4" />
<path
   class="st1"
   d="m 9.2631808,65.9 c -0.7,0.4 -1.4000004,0.6 -1.8000004,0.6 -2.7,0 -4.2,-1.7 -4.2,-5.1 V 49 H 0.36318041 l -0.2,-0.5 1.09999999,-1.2 h 2 v -3.6 c 0.8,-0.8 2,-2 2.8,-2.8 l 0.6,0.1 c -0.1,1.8 -0.1,4.2 -0.1,6.3 h 4.8000006 c 0.4,0.4 0.3,1.4 -0.3,1.7 H 6.4631804 v 10.9 c 0,3.4 1.4,4.1 2.5000004,4.1 1,0 2.0000002,-0.4 2.6000002,-0.7 l 0.4,1.1 z M 34.663181,62.3 c -2.7,3.4 -5.7,4.1 -7.1,4.1 -5.2,0 -8.3,-4.2 -8.3,-9.1 0,-2.9 1,-5.6 2.8,-7.4 1.8,-2 4.1,-3.1 6.3,-3.1 3.7,0 6.5,3.2 6.5,6.6 0,0.8 -0.2,1.2 -0.8,1.4 -0.8,0.2 -6.3,0.6 -11.3,0.7 -0.1,5.7 3.4,8 6.4,8 1.7,0 3.4,-0.7 4.9,-2.2 z m -7.3,-13.9 c -2,0 -3.9,1.8 -4.5,5.3 2.4,0 4.8,0 7.3,-0.1 0.8,0 1,-0.2 1,-0.8 0.1,-2.4 -1.4,-4.4 -3.8,-4.4 z m 27.1,4 c -0.8,-2.5 -1.9,-4.2 -4.5,-4.2 -1.5,0 -2.6,1.1 -2.6,2.8 0,1.8 1.2,2.7 3.6,3.8 3.7,1.7 5.5,3 5.5,5.8 0,3.9 -3.6,5.9 -6.9,5.9 -2.2,0 -4.2,-0.7 -5.1,-1.2 -0.2,-1.2 -0.6,-3.6 -0.8,-5 l 1.2,-0.2 c 0.8,2.7 2.3,4.9 5.2,4.9 1.6,0 3,-1.1 3,-2.9 0,-1.9 -1.1,-2.9 -3.4,-4 -3,-1.4 -5.4,-2.8 -5.4,-5.9 0,-3.1 2.6,-5.5 6.6,-5.5 1.8,0 3.2,0.4 4.1,0.6 0.1,1 0.4,3.7 0.6,4.7 z m 18.7,13.5 c -0.7,0.4 -1.4,0.6 -1.8,0.6 -2.7,0 -4.2,-1.7 -4.2,-5.1 V 49 h -2.9 l -0.2,-0.5 1.1,-1.2 h 2 v -3.6 c 0.8,-0.8 2,-2 2.8,-2.8 l 0.6,0.1 c -0.1,1.8 -0.1,4.2 -0.1,6.3 h 4.8 c 0.4,0.4 0.3,1.4 -0.3,1.7 h -4.6 v 10.9 c 0,3.4 1.4,4.1 2.5,4.1 1,0 2,-0.4 2.6,-0.7 l 0.4,1.1 z"
   id="path6"
   inkscape:connector-curvature="0"
   style="fill:#6d6e70" />
</svg>