<svg xmlns="http://www.w3.org/2000/svg" width="242.736" height="80.855" viewBox="0 0 242.736 80.855">
  <g id="Group_3" data-name="Group 3" transform="translate(-739.864 -158.536)">
    <path id="Path_15" data-name="Path 15" d="M.864-33.888v2.016l4.32.72V-2.736l-4.32.72V0h16.08V-2.016l-4.512-.72V-16.608h6.816l1.824,5.424H23.04v-12.96H21.072l-1.824,5.088H12.432V-31.488H22.9l3.984,5.616h2.4l-.768-8.016ZM44.832-6.24A3.234,3.234,0,0,1,41.76-3.408c-1.152,0-2.112-1.728-2.112-3.744,0-1.632,1.392-2.736,2.928-3.5l2.256-1.152ZM49.872.576c1.872,0,3.936-1.008,5.136-4.752l-1.44-.576c-.192.768-.528,2.16-1.536,2.16s-1.248-.96-1.248-2.016v-11.76c0-3.936-2.256-6.72-6.72-6.72-2.064,0-6.432,2.3-8.256,3.5a3.509,3.509,0,0,0-1.824,3.408,2.509,2.509,0,0,0,2.736,2.688c1.68,0,2.784-.864,2.784-2.448a14.431,14.431,0,0,0-.432-3.168,5.069,5.069,0,0,1,2.784-.912c1.872,0,2.976,1.44,2.976,4.272v1.92l-6.576,2.832C34.992-9.6,33.6-8.064,33.6-5.568c0,2.352,1.968,6.144,4.56,6.144a9.126,9.126,0,0,0,6.72-3.5h.48C45.888-.576,47.28.576,49.872.576Zm22.32-19.248c-.528,2.4.768,3.984,2.784,3.984,1.488,0,3.024-1.248,3.024-3.936,0-3.168-1.968-4.464-3.792-4.464-2.352,0-3.552,1.392-4.848,3.6l-.432-.192-.816-3.408h-1.1l-7.68,2.016v1.008l3.12,1.824V-2.16l-2.88.72V0h12.96V-1.44l-3.792-.72V-15.5a10.352,10.352,0,0,1,2.784-3.5ZM107.664,0V-1.44l-2.5-.72V-15.792c0-.672-.1-1.344-.144-1.968a7.388,7.388,0,0,1,3.888-1.776c1.92,0,2.784.96,2.784,3.648V-2.16l-2.064.72V0h11.232V-1.44l-2.88-.72V-15.744c0-5.088-2.736-7.344-6.1-7.344-2.592,0-5.136,1.584-7.536,3.36a5.547,5.547,0,0,0-5.328-3.36c-2.064,0-3.888,1.008-6.144,2.688l-.384-.288-.288-2.4H91.056l-8.112,2.016v1.008l3.12,1.824V-2.16l-2.88.72V0H94.7V-1.44l-2.352-.72v-15.6A5.124,5.124,0,0,1,96-19.536c1.872,0,2.88,1.056,2.88,4.128V-2.16l-2.208.72V0Zm30.768-6.24a3.234,3.234,0,0,1-3.072,2.832c-1.152,0-2.112-1.728-2.112-3.744,0-1.632,1.392-2.736,2.928-3.5l2.256-1.152Zm5.04,6.816c1.872,0,3.936-1.008,5.136-4.752l-1.44-.576c-.192.768-.528,2.16-1.536,2.16s-1.248-.96-1.248-2.016v-11.76c0-3.936-2.256-6.72-6.72-6.72-2.064,0-6.432,2.3-8.256,3.5a3.509,3.509,0,0,0-1.824,3.408,2.509,2.509,0,0,0,2.736,2.688c1.68,0,2.784-.864,2.784-2.448a14.431,14.431,0,0,0-.432-3.168,5.069,5.069,0,0,1,2.784-.912c1.872,0,2.976,1.44,2.976,4.272v1.92l-6.576,2.832C128.592-9.6,127.2-8.064,127.2-5.568c0,2.352,1.968,6.144,4.56,6.144a9.126,9.126,0,0,0,6.72-3.5h.48C139.488-.576,140.88.576,143.472.576Zm28.752-2.64c-4.848,0-10.128-4.8-10.128-14.88,0-10.416,4.944-15.12,10.752-15.12,3.648,0,8.064,2.928,9.5,8.736h1.968v-7.728c-3.264-1.824-7.728-3.408-11.472-3.408-10.176,0-18.72,6.768-18.72,17.568,0,11.28,7.728,17.472,17.568,17.472A23.124,23.124,0,0,0,184.7-3.12v-7.536h-1.92C181.152-5.952,177.312-2.064,172.224-2.064ZM192-11.232C192-3.168,196.992.576,202.944.576s10.9-3.6,10.9-11.808c0-8.064-4.944-11.856-10.9-11.856S192-19.3,192-11.232Zm6.72-.048c0-7.344,1.92-9.6,4.224-9.6s4.224,2.112,4.224,9.6c0,7.68-1.92,9.648-4.224,9.648S198.72-4.368,198.72-11.28Zm20.352-11.184v1.44l2.112.72L230.592.576h2.16L241.2-19.968l2.4-1.056v-1.44h-8.3v1.44l3.216,1.056L233.52-7.728h-.48L228.048-20.3l3.456-.72v-1.44Z" transform="translate(739 193)" fill="#1ba0c9"/>
    <path id="Path_16" data-name="Path 16" d="M.867-20.706H3.978V-5.661A7.372,7.372,0,0,0,5.253-.995Q6.528.612,9.486.612A8.8,8.8,0,0,0,11.628.357,12.581,12.581,0,0,0,13.49-.255a7.743,7.743,0,0,0,1.453-.791,12.834,12.834,0,0,0,1.02-.791L15.1-3.366a9.473,9.473,0,0,1-2.091.816,7.818,7.818,0,0,1-1.887.255,2.235,2.235,0,0,1-1.836-.816,4.016,4.016,0,0,1-.663-2.55V-20.706H15.3v-2.652H8.619v-5.763H6.783L4.437-25.347.867-22.593Zm25.092,6.579H40.29q.408,0,.484-.459a7.363,7.363,0,0,0,.076-1.173,6.817,6.817,0,0,0-.637-2.729,8.966,8.966,0,0,0-1.836-2.677,10.03,10.03,0,0,0-2.932-2.04,9.115,9.115,0,0,0-3.927-.816,8.909,8.909,0,0,0-4.131.969,9.8,9.8,0,0,0-3.238,2.678,13.026,13.026,0,0,0-2.117,4,15.384,15.384,0,0,0-.765,4.9,13.727,13.727,0,0,0,.74,4.463A12.911,12.911,0,0,0,24.1-3.137,10.3,10.3,0,0,0,27.361-.408,9.013,9.013,0,0,0,31.671.612,8.779,8.779,0,0,0,35.19-.051a10.767,10.767,0,0,0,2.7-1.658A11.648,11.648,0,0,0,39.908-3.9a24.351,24.351,0,0,0,1.453-2.321L39.78-7.293A9.357,9.357,0,0,1,36.9-4.437a6.743,6.743,0,0,1-3.493.918,7.311,7.311,0,0,1-2.831-.561A6.461,6.461,0,0,1,28.2-5.789a8.962,8.962,0,0,1-1.658-2.856,11.273,11.273,0,0,1-.637-3.952v-.765A6.186,6.186,0,0,1,25.959-14.127Zm5.508-7.8a4.006,4.006,0,0,1,2.754,1.045A3.662,3.662,0,0,1,35.394-18a7.2,7.2,0,0,1-.051.841,3.579,3.579,0,0,1-.2.841H26.265a7.945,7.945,0,0,1,1.964-4.233A4.488,4.488,0,0,1,31.467-21.93ZM49.011-7.65V0h1.683l.765-.663a8.647,8.647,0,0,0,.867.357Q52.887-.1,53.6.1t1.5.357a8.435,8.435,0,0,0,1.607.153A10.561,10.561,0,0,0,59.746.179a7.563,7.563,0,0,0,2.576-1.326,6.321,6.321,0,0,0,1.76-2.193,6.7,6.7,0,0,0,.637-2.984,6.229,6.229,0,0,0-.51-2.6,6.825,6.825,0,0,0-1.4-2.015,9.838,9.838,0,0,0-2.167-1.606q-1.275-.714-2.805-1.428a24.887,24.887,0,0,1-4-2.117,2.847,2.847,0,0,1-1.352-2.422,3.057,3.057,0,0,1,1.122-2.5,4.207,4.207,0,0,1,2.754-.918,4.719,4.719,0,0,1,1.53.28,4.816,4.816,0,0,1,1.581.944,7.482,7.482,0,0,1,1.428,1.734,10.724,10.724,0,0,1,1.122,2.652H63.75v-7.293H62.373L61.1-23q-.765-.306-2.014-.663a10.519,10.519,0,0,0-2.882-.357,8.149,8.149,0,0,0-3.213.586,6.4,6.4,0,0,0-2.244,1.53,6.43,6.43,0,0,0-1.3,2.091,6.389,6.389,0,0,0-.434,2.269,6.7,6.7,0,0,0,1.479,4.463A12.02,12.02,0,0,0,55.182-10,28.4,28.4,0,0,1,57.91-8.7a8.2,8.2,0,0,1,1.658,1.173,3.07,3.07,0,0,1,.816,1.173A4.107,4.107,0,0,1,60.588-5a3.552,3.552,0,0,1-1.046,2.525,3.6,3.6,0,0,1-2.729,1.1,4.73,4.73,0,0,1-3.825-1.709,10.4,10.4,0,0,1-2.04-4.564ZM71.706-20.706h3.111V-5.661A7.372,7.372,0,0,0,76.092-.995Q77.367.612,80.325.612A8.8,8.8,0,0,0,82.467.357a12.581,12.581,0,0,0,1.862-.612,7.743,7.743,0,0,0,1.453-.791,12.835,12.835,0,0,0,1.02-.791l-.867-1.53a9.473,9.473,0,0,1-2.091.816,7.818,7.818,0,0,1-1.887.255,2.235,2.235,0,0,1-1.836-.816,4.016,4.016,0,0,1-.663-2.55V-20.706h6.681v-2.652H79.458v-5.763H77.622l-2.346,3.774-3.57,2.754Z" transform="translate(739 238.779)" fill="#6d6f71"/>
  </g>
</svg>
