<?xml version="1.0" encoding="utf-8"?>
<!-- Generator: Adobe Illustrator 21.0.0, SVG Export Plug-In . SVG Version: 6.00 Build 0)  -->
<svg version="1.1" id="Layer_1" xmlns="http://www.w3.org/2000/svg" xmlns:xlink="http://www.w3.org/1999/xlink" x="0px" y="0px"
	 viewBox="0 0 145.5 86.6" style="enable-background:new 0 0 145.5 86.6;" xml:space="preserve">
<style type="text/css">
	.st0{opacity:0.75;}
	.st1{clip-path:url(#SVGID_2_);fill:#00ADCA;}
	.st2{clip-path:url(#SVGID_4_);fill:#00ADCA;}
	.st3{clip-path:url(#SVGID_6_);fill:#00ADCA;}
	.st4{clip-path:url(#SVGID_8_);fill:#00ADCA;}
	.st5{clip-path:url(#SVGID_10_);fill:#00ADCA;}
	.st6{opacity:0.4;}
	.st7{clip-path:url(#SVGID_12_);fill:#00ADCA;}
	.st8{clip-path:url(#SVGID_14_);fill:#00ADCA;}
	.st9{clip-path:url(#SVGID_16_);fill:#00ADCA;}
	.st10{clip-path:url(#SVGID_18_);fill:#00ADCA;}
	.st11{opacity:0.5;}
	.st12{clip-path:url(#SVGID_20_);fill:#00ADCA;}
	.st13{clip-path:url(#SVGID_22_);fill:#00ADCA;}
	.st14{clip-path:url(#SVGID_24_);fill:#00ADCA;}
	.st15{clip-path:url(#SVGID_26_);fill:#00ADCA;}
</style>
<g class="st0">
	<g>
		<defs>
			<rect id="SVGID_1_" y="59.5" width="9.3" height="21"/>
		</defs>
		<clipPath id="SVGID_2_">
			<use xlink:href="#SVGID_1_"  style="overflow:visible;"/>
		</clipPath>
		<path class="st1" d="M8.5,59.5h0.8l0,0v2.8l0,0H8.6c-1.2,0-2.1,0.6-2.7,1.7c-0.3,0.7-0.5,1.6-0.5,2.8h3.9l0,0v2.7l0,0H5.4v10.9
			l0,0H2.7v-11H0l0,0v-2.7l0,0h2.7v-0.1c0-2.5,0.7-4.4,2.1-5.7c0.5-0.5,1-0.8,1.6-1C7,59.6,7.8,59.5,8.5,59.5"/>
	</g>
</g>
<g class="st0">
	<g>
		<defs>
			<rect id="SVGID_3_" x="10.2" y="66.5" width="13.9" height="14.3"/>
		</defs>
		<clipPath id="SVGID_4_">
			<use xlink:href="#SVGID_3_"  style="overflow:visible;"/>
		</clipPath>
		<path class="st2" d="M17.2,66.5c1.6,0,3,0.6,4.1,1.8v-1.6l0,0h2.7l0,0v13.7l0,0h-2.7l0,0V79c-1.1,1.2-2.4,1.8-4.1,1.8h0
			c-2.1,0-3.9-0.8-5.3-2.5c-1.1-1.4-1.6-2.9-1.6-4.6v0c0-2.1,0.8-3.9,2.4-5.4C14,67.1,15.5,66.5,17.2,66.5 M13,73.6
			c0,1.5,0.6,2.7,1.9,3.7c0.7,0.4,1.4,0.7,2.1,0.7h0.3c0.9,0,1.8-0.4,2.7-1.1c0.9-0.9,1.3-2,1.3-3.2v0c0-1.5-0.7-2.8-1.9-3.7
			c-0.7-0.4-1.4-0.7-2.1-0.7H17c-1.1,0-2.2,0.5-3.1,1.6C13.3,71.8,13,72.7,13,73.6"/>
	</g>
</g>
<g class="st0">
	<g>
		<defs>
			<rect id="SVGID_5_" x="28.5" y="66.6" width="9.3" height="13.8"/>
		</defs>
		<clipPath id="SVGID_6_">
			<use xlink:href="#SVGID_5_"  style="overflow:visible;"/>
		</clipPath>
		<path class="st3" d="M34.4,66.6h0.4c0.9,0,1.9,0.3,2.9,0.8v0c-0.4,1.8-0.6,2.8-0.7,2.9c-0.9-0.6-1.7-0.9-2.4-0.9h-0.2
			c-0.9,0-1.7,0.3-2.4,1c-0.5,0.6-0.8,1.9-0.8,3.6v6.3l0,0h-2.7l0,0V66.9l0,0h2.7l0,0v1C32.3,67.1,33.3,66.6,34.4,66.6"/>
	</g>
</g>
<g class="st0">
	<g>
		<defs>
			<rect id="SVGID_7_" x="40.4" y="66.7" width="21.7" height="13.7"/>
		</defs>
		<clipPath id="SVGID_8_">
			<use xlink:href="#SVGID_7_"  style="overflow:visible;"/>
		</clipPath>
		<path class="st4" d="M46.7,66.7h0.1c1.9,0,3.3,0.6,4.5,1.7c1.1-1.1,2.6-1.7,4.5-1.7h0.4c2.5,0,4.3,1,5.4,2.9
			c0.3,0.7,0.5,1.5,0.5,2.2v8.6l0,0h-2.7l0,0v-8.6c0-1-0.6-1.7-1.7-2.1c-0.4-0.1-0.8-0.2-1.3-0.2h-0.6c-1.5,0-2.5,0.5-2.9,1.5
			c-0.1,0.3-0.2,0.6-0.2,0.9v8.5l0,0h-2.7l0,0v-8.3c0-1-0.3-1.7-1-2.1c-0.5-0.4-1.2-0.5-2.1-0.5h-0.2c-1.2,0-2,0.2-2.5,0.5
			c-0.6,0.4-0.9,1.1-0.9,2.1v8.3l0,0h-2.7l0,0V66.8l0,0h2.7l0,0v0.8h0c0.5-0.3,1.1-0.5,1.9-0.7C45.5,66.8,46.1,66.7,46.7,66.7"/>
	</g>
</g>
<g class="st0">
	<g>
		<defs>
			<rect id="SVGID_9_" x="65.5" y="66.5" width="13.9" height="14.3"/>
		</defs>
		<clipPath id="SVGID_10_">
			<use xlink:href="#SVGID_9_"  style="overflow:visible;"/>
		</clipPath>
		<path class="st5" d="M72.5,66.5c1.6,0,3,0.6,4.1,1.8v-1.6l0,0h2.7l0,0v13.7l0,0h-2.7l0,0V79c-1.1,1.2-2.4,1.8-4.1,1.8h0
			c-2.1,0-3.9-0.8-5.3-2.5c-1.1-1.4-1.6-2.9-1.6-4.6v0c0-2.1,0.8-3.9,2.4-5.4C69.3,67.1,70.8,66.5,72.5,66.5 M68.3,73.6
			c0,1.5,0.6,2.7,1.9,3.7c0.7,0.4,1.4,0.7,2.1,0.7h0.3c0.9,0,1.8-0.4,2.7-1.1c0.9-0.9,1.3-2,1.3-3.2v0c0-1.5-0.7-2.8-1.9-3.7
			c-0.7-0.4-1.4-0.7-2.1-0.7h-0.2c-1.1,0-2.2,0.5-3.1,1.6C68.6,71.8,68.3,72.7,68.3,73.6"/>
	</g>
</g>
<g class="st6">
	<g>
		<defs>
			<rect id="SVGID_11_" x="82.8" y="66.5" width="12.7" height="14.3"/>
		</defs>
		<clipPath id="SVGID_12_">
			<use xlink:href="#SVGID_11_"  style="overflow:visible;"/>
		</clipPath>
		<path class="st7" d="M89.8,66.5L89.8,66.5c1.5,0,2.8,0.4,4,1.3c0.2,0.2,0.5,0.4,0.8,0.7c0.4,0.4,0.6,0.6,0.7,0.8
			c0.1,0.2,0.2,0.3,0.2,0.3l-2.3,1.5h0c-0.1-0.2-0.3-0.4-0.6-0.7c-0.8-0.8-1.8-1.2-2.9-1.2c-1,0-1.9,0.4-2.8,1.1
			c-0.3,0.3-0.5,0.5-0.6,0.7c-0.6,0.8-0.8,1.7-0.8,2.6c0,1,0.3,2,1,2.8c0.2,0.2,0.4,0.5,0.7,0.7c0.8,0.6,1.6,0.9,2.5,0.9
			c0.8,0,1.6-0.3,2.4-0.8c0.2-0.1,0.4-0.3,0.7-0.6c0.2-0.2,0.3-0.4,0.4-0.6h0l2.3,1.5c-0.2,0.3-0.4,0.5-0.7,0.9
			c-0.3,0.4-0.6,0.6-0.7,0.7c-0.3,0.3-0.6,0.5-0.8,0.6c-1.1,0.7-2.3,1-3.5,1h-0.1c-1.3,0-2.6-0.4-3.7-1.2c-0.2-0.2-0.4-0.3-0.6-0.5
			c-0.4-0.3-0.6-0.6-0.8-0.8c-0.4-0.5-0.7-0.9-0.8-1.2c-0.2-0.3-0.4-0.7-0.5-1.2c-0.2-0.8-0.4-1.5-0.4-2.2v-0.2
			c0-1.1,0.3-2.1,0.8-3.2c0.2-0.3,0.3-0.6,0.6-0.9c0.2-0.2,0.4-0.5,0.7-0.9c0.4-0.4,0.7-0.6,1-0.8C87.1,66.9,88.4,66.5,89.8,66.5"/>
	</g>
</g>
<g class="st6">
	<g>
		<defs>
			<rect id="SVGID_13_" x="97.8" y="66.5" width="13.9" height="14.3"/>
		</defs>
		<clipPath id="SVGID_14_">
			<use xlink:href="#SVGID_13_"  style="overflow:visible;"/>
		</clipPath>
		<path class="st8" d="M104.7,66.5c1.6,0,3,0.5,4.3,1.5c0.2,0.1,0.4,0.4,0.8,0.7c0.7,0.7,1.1,1.5,1.4,2.3c0.3,0.9,0.5,1.8,0.5,2.7
			c0,1.2-0.3,2.4-0.9,3.5c-0.2,0.4-0.5,0.8-0.8,1.2c-0.4,0.4-0.7,0.7-0.9,0.9c-0.3,0.2-0.5,0.4-0.7,0.5c-1.1,0.7-2.3,1-3.6,1h-0.1
			c-1.3,0-2.5-0.4-3.7-1.1c-0.2-0.2-0.4-0.3-0.6-0.5c-0.4-0.3-0.6-0.6-0.8-0.8c-0.2-0.2-0.4-0.5-0.6-0.7c-0.2-0.3-0.4-0.6-0.5-0.9
			c-0.4-1-0.7-2-0.7-3v-0.2c0-1.1,0.3-2.1,0.8-3.2c0.2-0.3,0.3-0.6,0.5-0.9c0.2-0.2,0.4-0.5,0.7-0.9c0.5-0.4,0.8-0.7,1-0.8
			C102,66.9,103.3,66.5,104.7,66.5 M100.6,73.7c0,1,0.3,2,1,2.8c0.3,0.3,0.5,0.6,0.7,0.7c0.8,0.6,1.6,0.9,2.5,0.9
			c1.1,0,2.1-0.4,2.9-1.2c0.3-0.4,0.6-0.7,0.7-0.9c0.4-0.7,0.6-1.4,0.6-2.2v0c0-1.1-0.4-2.1-1.1-3c-0.3-0.3-0.5-0.5-0.7-0.6
			c-0.2-0.1-0.3-0.2-0.5-0.3c-0.6-0.3-1.3-0.5-1.9-0.5c-1,0-1.9,0.4-2.8,1.1c-0.3,0.3-0.5,0.5-0.6,0.7
			C100.8,71.8,100.6,72.7,100.6,73.7"/>
	</g>
</g>
<g class="st6">
	<g>
		<defs>
			<rect id="SVGID_15_" x="114.3" y="66.5" width="13.9" height="14.3"/>
		</defs>
		<clipPath id="SVGID_16_">
			<use xlink:href="#SVGID_15_"  style="overflow:visible;"/>
		</clipPath>
		<path class="st9" d="M121.2,66.5c1.6,0,3,0.5,4.3,1.5c0.2,0.1,0.4,0.4,0.8,0.7c0.7,0.7,1.1,1.5,1.4,2.3c0.3,0.9,0.5,1.8,0.5,2.7
			c0,1.2-0.3,2.4-0.9,3.5c-0.2,0.4-0.5,0.8-0.8,1.2c-0.4,0.4-0.7,0.7-0.9,0.9c-0.3,0.2-0.5,0.4-0.7,0.5c-1.1,0.7-2.3,1-3.6,1h-0.1
			c-1.3,0-2.5-0.4-3.7-1.1c-0.2-0.2-0.4-0.3-0.6-0.5c-0.4-0.3-0.6-0.6-0.8-0.8c-0.2-0.2-0.4-0.5-0.6-0.7c-0.2-0.3-0.4-0.6-0.5-0.9
			c-0.4-1-0.7-2-0.7-3v-0.2c0-1.1,0.3-2.1,0.8-3.2c0.2-0.3,0.3-0.6,0.5-0.9c0.2-0.2,0.4-0.5,0.7-0.9c0.5-0.4,0.8-0.7,1-0.8
			C118.5,66.9,119.8,66.5,121.2,66.5 M117,73.7c0,1,0.3,2,1,2.8c0.3,0.3,0.5,0.6,0.7,0.7c0.8,0.6,1.6,0.9,2.5,0.9
			c1.1,0,2.1-0.4,2.9-1.2c0.3-0.4,0.6-0.7,0.7-0.9c0.4-0.7,0.6-1.4,0.6-2.2v0c0-1.1-0.4-2.1-1.1-3c-0.3-0.3-0.5-0.5-0.7-0.6
			c-0.2-0.1-0.3-0.2-0.5-0.3c-0.6-0.3-1.3-0.5-1.9-0.5c-1,0-1.9,0.4-2.8,1.1c-0.3,0.3-0.5,0.5-0.6,0.7C117.3,71.8,117,72.7,117,73.7
			"/>
	</g>
</g>
<g class="st6">
	<g>
		<defs>
			<rect id="SVGID_17_" x="131.6" y="66.5" width="13.9" height="20.1"/>
		</defs>
		<clipPath id="SVGID_18_">
			<use xlink:href="#SVGID_17_"  style="overflow:visible;"/>
		</clipPath>
		<path class="st10" d="M138.4,66.5c1.4,0,2.6,0.3,3.7,1c0.3,0.2,0.7,0.4,1.1,0.8c0.4,0.4,0.6,0.6,0.7,0.7c0.2,0.3,0.4,0.6,0.6,0.9
			c0.6,1.1,1,2.4,1,3.7c0,1.6-0.5,3-1.5,4.4c-0.1,0.2-0.4,0.5-0.7,0.9l-0.3,0.2c-1.3,1.1-2.8,1.7-4.5,1.7c-1.2,0-2.3-0.3-3.3-1
			c-0.2-0.1-0.4-0.3-0.7-0.6l-0.1-0.2v7.6h-2.8l0,0V66.8l0,0h2.8v1.5c0.3-0.4,0.6-0.6,0.6-0.6c0.3-0.2,0.5-0.4,0.7-0.5
			c0.3-0.2,0.6-0.3,0.9-0.4c0.2-0.1,0.6-0.1,1.1-0.2C138,66.5,138.2,66.5,138.4,66.5 M134.4,73.4V74c0,0.3,0.1,0.7,0.2,1.2
			c0.1,0.3,0.2,0.6,0.4,0.8c0.1,0.2,0.3,0.5,0.6,0.8c0.3,0.3,0.5,0.5,0.6,0.5c0.2,0.2,0.4,0.3,0.6,0.4c0.6,0.3,1.1,0.4,1.6,0.4h0.2
			c0.9,0,1.7-0.3,2.4-0.9c0.1-0.1,0.3-0.3,0.6-0.5c0.5-0.5,0.8-1.1,0.9-1.7c0.1-0.4,0.2-0.9,0.2-1.3c0-1.1-0.4-2.1-1.1-2.9
			c-0.3-0.3-0.5-0.5-0.6-0.5c-0.8-0.6-1.6-0.9-2.5-0.9h-0.1c-0.5,0-1.1,0.1-1.7,0.4c-0.3,0.1-0.6,0.4-1,0.7
			c-0.3,0.3-0.6,0.6-0.6,0.7c-0.1,0.2-0.3,0.4-0.3,0.6c-0.1,0.2-0.2,0.4-0.3,0.7C134.4,72.9,134.4,73.2,134.4,73.4"/>
	</g>
</g>
<g class="st11">
	<g>
		<defs>
			<rect id="SVGID_19_" x="70" y="14.5" width="29.1" height="29.1"/>
		</defs>
		<clipPath id="SVGID_20_">
			<use xlink:href="#SVGID_19_"  style="overflow:visible;"/>
		</clipPath>
		<path class="st12" d="M99,27.2c1.2,9.5-6.8,17.5-16.3,16.3c-6.5-0.8-11.7-6-12.5-12.5C69,21.5,77,13.5,86.5,14.7
			C92.9,15.5,98.2,20.7,99,27.2"/>
	</g>
</g>
<g class="st11">
	<g>
		<defs>
			<rect id="SVGID_21_" x="46.4" y="14.5" width="29.1" height="29.1"/>
		</defs>
		<clipPath id="SVGID_22_">
			<use xlink:href="#SVGID_21_"  style="overflow:visible;"/>
		</clipPath>
		<path class="st13" d="M75.3,27.2c1.2,9.5-6.8,17.5-16.3,16.3c-6.5-0.8-11.7-6-12.5-12.5c-1.2-9.5,6.8-17.5,16.3-16.3
			C69.3,15.5,74.5,20.7,75.3,27.2"/>
	</g>
</g>
<g class="st11">
	<g>
		<defs>
			<rect id="SVGID_23_" x="58.2" width="29.1" height="29.1"/>
		</defs>
		<clipPath id="SVGID_24_">
			<use xlink:href="#SVGID_23_"  style="overflow:visible;"/>
		</clipPath>
		<path class="st14" d="M70.8,0.1c9.5-1.2,17.5,6.8,16.3,16.3c-0.8,6.5-6,11.7-12.5,12.5c-9.5,1.2-17.5-6.8-16.3-16.3
			C59.1,6.2,64.4,0.9,70.8,0.1"/>
	</g>
</g>
<g class="st11">
	<g>
		<defs>
			<rect id="SVGID_25_" x="58.2" y="29.1" width="29.1" height="29.1"/>
		</defs>
		<clipPath id="SVGID_26_">
			<use xlink:href="#SVGID_25_"  style="overflow:visible;"/>
		</clipPath>
		<path class="st15" d="M70.8,29.2C80.4,28,88.4,36,87.2,45.5c-0.8,6.5-6,11.7-12.5,12.5c-9.5,1.2-17.5-6.8-16.3-16.3
			C59.1,35.2,64.4,30,70.8,29.2"/>
	</g>
</g>
</svg>
