<?xml version="1.0" encoding="utf-8"?>
<!-- Generator: Adobe Illustrator 21.0.0, SVG Export Plug-In . SVG Version: 6.00 Build 0)  -->
<svg version="1.1" id="Layer_1" xmlns="http://www.w3.org/2000/svg" xmlns:xlink="http://www.w3.org/1999/xlink" x="0px" y="0px"
	 viewBox="0 0 110 110" style="enable-background:new 0 0 110 110;" xml:space="preserve">
<style type="text/css">
	.st0{fill:#00ADCA;}
	.st1{fill:none;stroke:#FFFFFF;stroke-width:1.5;stroke-linecap:round;stroke-miterlimit:10;}
	.st2{fill:none;stroke:#231F20;stroke-width:0.25;stroke-miterlimit:10;}
	.st3{fill:#FFFFFF;}
	.st4{fill:none;stroke:#FFFFFF;stroke-width:1.5;stroke-miterlimit:10;}
	.st5{fill:#6D6E70;}
</style>
<rect class="st0" width="110" height="110"/>
<g>
	<path class="st1" d="M49.7,109.4L20.5,54.4c-1-1.8-3.6-6.4,0.2-6.6c2-0.1,7.6,6.4,11.2,10.2c0.6,0.7,1.7,0,1.3-0.8
		c-3.6-9.2-14.2-26.5-9.8-29.1c3.7-2.8,11.5,12.6,15.3,19.4c0.3,0.5,1,0.2,0.9-0.4c-2.4-8.1-5.5-16.3-7.6-24.4
		c-0.4-1.7-0.9-3.4-0.1-5c0.4-0.8,1.1-1.4,2-1.5c1.7-0.2,2.9,1.3,3.6,2.8c3.1,7.2,8.2,18.7,11.2,24.1c0.4,0.7,1.5,0.4,1.4-0.5
		c-0.9-7.4-5-23.4-1.3-24.1c2.5-1,5.1,4.8,6.3,8.5c1.2,3.7,8.7,29.6,10.7,29.7c1,0,3.6-5.3,5.1-8.2c2.1-4.3,7.3-3.7,6,0.7
		c-3,7-4,10.2-5.3,17.5c-2.5,13.8,4.1,29.5,9.3,42.6"/>
	<path class="st1" d="M60.7,61.6c-4.3,2.3-7.2,7.2-7,12.1"/>
	<path class="st1" d="M39.9,66.4c3.7-2,7.1-4.8,9.7-8.1"/>
	<path class="st2" d="M79.3,29.8c0.1,0.1,0.1,0.2,0.1,0.3"/>
	<rect x="51.7" y="14.1" transform="matrix(0.4805 -0.877 0.877 0.4805 15.1951 57.791)" class="st3" width="9.4" height="4"/>
	<rect x="0.6" y="0.6" class="st4" width="108.7" height="108.7"/>
	<polygon class="st3" points="51.5,25.8 51.4,24.2 54.1,19.5 54.8,19.8 	"/>
	<path class="st5" d="M54.6,31.6l-3.2-5.8l-3.1,5.6l0,0c-0.3,0.5-0.5,1.1-0.5,1.8c0,2,1.6,3.5,3.5,3.5c2,0,3.5-1.6,3.5-3.5
		C54.9,32.5,54.8,32,54.6,31.6"/>
</g>
</svg>
